<svg xmlns="http://www.w3.org/2000/svg" width="880" height="200" viewBox="0 0 880 200" role="img" aria-label="Contribution activity of madeiragab over the last year">
  
  <defs>
    <linearGradient id="borda" x1="0" y1="0" x2="1" y2="1">
      <stop offset="0%" stop-color="#FF2E3F" stop-opacity="0.55"/>
      <stop offset="100%" stop-color="#2A2A2A" stop-opacity="0.9"/>
    </linearGradient>
  </defs>
  <rect x="0.5" y="0.5" width="879" height="199" rx="12"
        fill="#0A0A0A" stroke="url(#borda)" stroke-width="1.5"/>
  <text x="25" y="35" font-family="'JetBrains Mono','Cascadia Code',Consolas,ui-monospace,monospace" font-size="16" font-weight="700"
        fill="#FF2E3F">contribution activity</text>
  <rect x="25" y="45" width="34" height="2.5" rx="1.25" fill="#FF2E3F"/>
  <defs>
    <linearGradient id="areaGrad" x1="0" y1="0" x2="0" y2="1">
      <stop offset="0%" stop-color="#FF2E3F" stop-opacity="0.42"/>
      <stop offset="100%" stop-color="#FF2E3F" stop-opacity="0.02"/>
    </linearGradient>
  </defs>
  <text x="855" y="35" font-family="'JetBrains Mono','Cascadia Code',Consolas,ui-monospace,monospace" font-size="13" fill="#9A9A9A"
        text-anchor="end">773 in the last year &#183; peak 235</text>
  <line x1="25" y1="170" x2="855" y2="170"
        stroke="#2A2A2A" stroke-width="1"/>
  <line x1="25" y1="116" x2="855" y2="116"
        stroke="#2A2A2A" stroke-width="1" stroke-dasharray="3 5" opacity="0.6"/>
  <path d="M25.0 170.0 L27.2 170.0 L29.5 170.0 L31.7 170.0 L34.0 170.0 L36.2 170.0 L38.5 170.0 L40.7 170.0 L43.0 170.0 L45.2 170.0 L47.5 170.0 L49.7 170.0 L52.0 170.0 L54.2 170.0 L56.5 170.0 L58.7 170.0 L61.0 170.0 L63.2 170.0 L65.5 170.0 L67.7 170.0 L70.0 170.0 L72.2 170.0 L74.5 170.0 L76.7 170.0 L79.0 170.0 L81.2 170.0 L83.5 170.0 L85.7 170.0 L88.0 170.0 L90.2 170.0 L92.5 170.0 L94.7 170.0 L97.0 170.0 L99.2 170.0 L101.5 170.0 L103.7 170.0 L106.0 170.0 L108.2 170.0 L110.5 170.0 L112.7 170.0 L115.0 170.0 L117.2 170.0 L119.5 170.0 L121.7 170.0 L124.0 170.0 L126.2 170.0 L128.5 170.0 L130.7 170.0 L133.0 170.0 L135.2 170.0 L137.5 170.0 L139.7 170.0 L142.0 170.0 L144.2 170.0 L146.5 170.0 L148.7 170.0 L151.0 170.0 L153.2 170.0 L155.5 170.0 L157.7 170.0 L160.0 170.0 L162.2 170.0 L164.5 170.0 L166.7 170.0 L169.0 170.0 L171.2 170.0 L173.5 170.0 L175.7 170.0 L178.0 170.0 L180.2 170.0 L182.5 170.0 L184.7 170.0 L187.0 170.0 L189.2 170.0 L191.4 170.0 L193.7 170.0 L195.9 170.0 L198.2 170.0 L200.4 170.0 L202.7 170.0 L204.9 170.0 L207.2 170.0 L209.4 170.0 L211.7 170.0 L213.9 170.0 L216.2 170.0 L218.4 170.0 L220.7 170.0 L222.9 170.0 L225.2 170.0 L227.4 170.0 L229.7 170.0 L231.9 170.0 L234.2 170.0 L236.4 170.0 L238.7 170.0 L240.9 170.0 L243.2 169.7 L245.4 164.8 L247.7 163.6 L249.9 161.6 L252.2 166.5 L254.4 167.7 L256.7 170.0 L258.9 170.0 L261.2 170.0 L263.4 170.0 L265.7 170.0 L267.9 170.0 L270.2 170.0 L272.4 170.0 L274.7 170.0 L276.9 170.0 L279.2 170.0 L281.4 170.0 L283.7 170.0 L285.9 170.0 L288.2 170.0 L290.4 170.0 L292.7 170.0 L294.9 170.0 L297.2 170.0 L299.4 170.0 L301.7 170.0 L303.9 170.0 L306.2 170.0 L308.4 170.0 L310.7 170.0 L312.9 170.0 L315.2 170.0 L317.4 170.0 L319.7 170.0 L321.9 170.0 L324.2 170.0 L326.4 170.0 L328.7 170.0 L330.9 170.0 L333.2 170.0 L335.4 170.0 L337.7 170.0 L339.9 170.0 L342.2 168.8 L344.4 168.3 L346.7 168.3 L348.9 169.5 L351.2 170.0 L353.4 170.0 L355.7 170.0 L357.9 170.0 L360.1 170.0 L362.4 170.0 L364.6 170.0 L366.9 170.0 L369.1 170.0 L371.4 169.5 L373.6 169.1 L375.9 169.1 L378.1 169.5 L380.4 170.0 L382.6 170.0 L384.9 170.0 L387.1 170.0 L389.4 170.0 L391.6 170.0 L393.9 170.0 L396.1 170.0 L398.4 170.0 L400.6 170.0 L402.9 170.0 L405.1 170.0 L407.4 169.4 L409.6 169.4 L411.9 169.4 L414.1 170.0 L416.4 170.0 L418.6 170.0 L420.9 170.0 L423.1 169.8 L425.4 169.5 L427.6 169.2 L429.9 169.4 L432.1 169.7 L434.4 170.0 L436.6 169.8 L438.9 169.5 L441.1 169.5 L443.4 169.7 L445.6 170.0 L447.9 170.0 L450.1 169.1 L452.4 169.1 L454.6 169.1 L456.9 170.0 L459.1 170.0 L461.4 170.0 L463.6 170.0 L465.9 170.0 L468.1 170.0 L470.4 170.0 L472.6 170.0 L474.9 170.0 L477.1 170.0 L479.4 170.0 L481.6 170.0 L483.9 169.5 L486.1 169.4 L488.4 169.4 L490.6 169.8 L492.9 170.0 L495.1 170.0 L497.4 170.0 L499.6 170.0 L501.9 170.0 L504.1 170.0 L506.4 170.0 L508.6 169.4 L510.9 169.4 L513.1 169.4 L515.4 170.0 L517.6 170.0 L519.9 170.0 L522.1 170.0 L524.3 170.0 L526.6 170.0 L528.8 170.0 L531.1 170.0 L533.3 170.0 L535.6 170.0 L537.8 170.0 L540.1 170.0 L542.3 170.0 L544.6 170.0 L546.8 170.0 L549.1 169.7 L551.3 169.7 L553.6 169.7 L555.8 170.0 L558.1 170.0 L560.3 170.0 L562.6 170.0 L564.8 170.0 L567.1 170.0 L569.3 170.0 L571.6 170.0 L573.8 170.0 L576.1 170.0 L578.3 170.0 L580.6 170.0 L582.8 170.0 L585.1 170.0 L587.3 170.0 L589.6 170.0 L591.8 170.0 L594.1 170.0 L596.3 170.0 L598.6 170.0 L600.8 170.0 L603.1 170.0 L605.3 170.0 L607.6 170.0 L609.8 170.0 L612.1 170.0 L614.3 170.0 L616.6 170.0 L618.8 170.0 L621.1 170.0 L623.3 170.0 L625.6 170.0 L627.8 170.0 L630.1 170.0 L632.3 170.0 L634.6 170.0 L636.8 170.0 L639.1 170.0 L641.3 170.0 L643.6 168.8 L645.8 168.8 L648.1 168.8 L650.3 170.0 L652.6 170.0 L654.8 170.0 L657.1 170.0 L659.3 170.0 L661.6 170.0 L663.8 170.0 L666.1 170.0 L668.3 170.0 L670.6 170.0 L672.8 170.0 L675.1 170.0 L677.3 170.0 L679.6 170.0 L681.8 170.0 L684.1 170.0 L686.3 170.0 L688.6 170.0 L690.8 170.0 L693.0 170.0 L695.3 170.0 L697.5 170.0 L699.8 170.0 L702.0 170.0 L704.3 170.0 L706.5 170.0 L708.8 170.0 L711.0 170.0 L713.3 170.0 L715.5 169.1 L717.8 169.1 L720.0 167.7 L722.3 168.6 L724.5 168.6 L726.8 168.0 L729.0 167.1 L731.3 159.3 L733.5 159.1 L735.8 159.1 L738.0 165.4 L740.3 166.2 L742.5 166.8 L744.8 167.5 L747.0 167.5 L749.3 167.5 L751.5 166.3 L753.8 161.1 L756.0 161.4 L758.3 163.4 L760.5 170.0 L762.8 170.0 L765.0 170.0 L767.3 169.7 L769.5 169.7 L771.8 164.0 L774.0 160.5 L776.3 160.2 L778.5 165.7 L780.8 168.9 L783.0 164.8 L785.3 164.9 L787.5 165.6 L789.8 170.0 L792.0 170.0 L794.3 170.0 L796.5 170.0 L798.8 170.0 L801.0 170.0 L803.3 170.0 L805.5 170.0 L807.8 170.0 L810.0 170.0 L812.3 168.5 L814.5 161.4 L816.8 125.4 L819.0 127.0 L821.3 133.2 L823.5 166.6 L825.8 159.7 L828.0 159.9 L830.3 162.0 L832.5 168.9 L834.8 169.5 L837.0 170.0 L839.3 170.0 L841.5 170.0 L843.8 170.0 L846.0 170.0 L848.3 170.0 L850.5 170.0 L852.8 170.0 L855.0 170.0 L855.0 170 L25.0 170 Z" fill="url(#areaGrad)"/>
  <path d="M25.0 170.0 L27.2 170.0 L29.5 170.0 L31.7 170.0 L34.0 170.0 L36.2 170.0 L38.5 170.0 L40.7 170.0 L43.0 170.0 L45.2 170.0 L47.5 170.0 L49.7 170.0 L52.0 170.0 L54.2 170.0 L56.5 170.0 L58.7 170.0 L61.0 170.0 L63.2 170.0 L65.5 170.0 L67.7 170.0 L70.0 170.0 L72.2 170.0 L74.5 170.0 L76.7 170.0 L79.0 170.0 L81.2 170.0 L83.5 170.0 L85.7 170.0 L88.0 170.0 L90.2 170.0 L92.5 170.0 L94.7 170.0 L97.0 170.0 L99.2 170.0 L101.5 170.0 L103.7 170.0 L106.0 170.0 L108.2 170.0 L110.5 170.0 L112.7 170.0 L115.0 170.0 L117.2 170.0 L119.5 170.0 L121.7 170.0 L124.0 170.0 L126.2 170.0 L128.5 170.0 L130.7 170.0 L133.0 170.0 L135.2 170.0 L137.5 170.0 L139.7 170.0 L142.0 170.0 L144.2 170.0 L146.5 170.0 L148.7 170.0 L151.0 170.0 L153.2 170.0 L155.5 170.0 L157.7 170.0 L160.0 170.0 L162.2 170.0 L164.5 170.0 L166.7 170.0 L169.0 170.0 L171.2 170.0 L173.5 170.0 L175.7 170.0 L178.0 170.0 L180.2 170.0 L182.5 170.0 L184.7 170.0 L187.0 170.0 L189.2 170.0 L191.4 170.0 L193.7 170.0 L195.9 170.0 L198.2 170.0 L200.4 170.0 L202.7 170.0 L204.9 170.0 L207.2 170.0 L209.4 170.0 L211.7 170.0 L213.9 170.0 L216.2 170.0 L218.4 170.0 L220.7 170.0 L222.9 170.0 L225.2 170.0 L227.4 170.0 L229.7 170.0 L231.9 170.0 L234.2 170.0 L236.4 170.0 L238.7 170.0 L240.9 170.0 L243.2 169.7 L245.4 164.8 L247.7 163.6 L249.9 161.6 L252.2 166.5 L254.4 167.7 L256.7 170.0 L258.9 170.0 L261.2 170.0 L263.4 170.0 L265.7 170.0 L267.9 170.0 L270.2 170.0 L272.4 170.0 L274.7 170.0 L276.9 170.0 L279.2 170.0 L281.4 170.0 L283.7 170.0 L285.9 170.0 L288.2 170.0 L290.4 170.0 L292.7 170.0 L294.9 170.0 L297.2 170.0 L299.4 170.0 L301.7 170.0 L303.9 170.0 L306.2 170.0 L308.4 170.0 L310.7 170.0 L312.9 170.0 L315.2 170.0 L317.4 170.0 L319.7 170.0 L321.9 170.0 L324.2 170.0 L326.4 170.0 L328.7 170.0 L330.9 170.0 L333.2 170.0 L335.4 170.0 L337.7 170.0 L339.9 170.0 L342.2 168.8 L344.4 168.3 L346.7 168.3 L348.9 169.5 L351.2 170.0 L353.4 170.0 L355.7 170.0 L357.9 170.0 L360.1 170.0 L362.4 170.0 L364.6 170.0 L366.9 170.0 L369.1 170.0 L371.4 169.5 L373.6 169.1 L375.9 169.1 L378.1 169.5 L380.4 170.0 L382.6 170.0 L384.9 170.0 L387.1 170.0 L389.4 170.0 L391.6 170.0 L393.9 170.0 L396.1 170.0 L398.4 170.0 L400.6 170.0 L402.9 170.0 L405.1 170.0 L407.4 169.4 L409.6 169.4 L411.9 169.4 L414.1 170.0 L416.4 170.0 L418.6 170.0 L420.9 170.0 L423.1 169.8 L425.4 169.5 L427.6 169.2 L429.9 169.4 L432.1 169.7 L434.4 170.0 L436.6 169.8 L438.9 169.5 L441.1 169.5 L443.4 169.7 L445.6 170.0 L447.9 170.0 L450.1 169.1 L452.4 169.1 L454.6 169.1 L456.9 170.0 L459.1 170.0 L461.4 170.0 L463.6 170.0 L465.9 170.0 L468.1 170.0 L470.4 170.0 L472.6 170.0 L474.9 170.0 L477.1 170.0 L479.4 170.0 L481.6 170.0 L483.9 169.5 L486.1 169.4 L488.4 169.4 L490.6 169.8 L492.9 170.0 L495.1 170.0 L497.4 170.0 L499.6 170.0 L501.9 170.0 L504.1 170.0 L506.4 170.0 L508.6 169.4 L510.9 169.4 L513.1 169.4 L515.4 170.0 L517.6 170.0 L519.9 170.0 L522.1 170.0 L524.3 170.0 L526.6 170.0 L528.8 170.0 L531.1 170.0 L533.3 170.0 L535.6 170.0 L537.8 170.0 L540.1 170.0 L542.3 170.0 L544.6 170.0 L546.8 170.0 L549.1 169.7 L551.3 169.7 L553.6 169.7 L555.8 170.0 L558.1 170.0 L560.3 170.0 L562.6 170.0 L564.8 170.0 L567.1 170.0 L569.3 170.0 L571.6 170.0 L573.8 170.0 L576.1 170.0 L578.3 170.0 L580.6 170.0 L582.8 170.0 L585.1 170.0 L587.3 170.0 L589.6 170.0 L591.8 170.0 L594.1 170.0 L596.3 170.0 L598.6 170.0 L600.8 170.0 L603.1 170.0 L605.3 170.0 L607.6 170.0 L609.8 170.0 L612.1 170.0 L614.3 170.0 L616.6 170.0 L618.8 170.0 L621.1 170.0 L623.3 170.0 L625.6 170.0 L627.8 170.0 L630.1 170.0 L632.3 170.0 L634.6 170.0 L636.8 170.0 L639.1 170.0 L641.3 170.0 L643.6 168.8 L645.8 168.8 L648.1 168.8 L650.3 170.0 L652.6 170.0 L654.8 170.0 L657.1 170.0 L659.3 170.0 L661.6 170.0 L663.8 170.0 L666.1 170.0 L668.3 170.0 L670.6 170.0 L672.8 170.0 L675.1 170.0 L677.3 170.0 L679.6 170.0 L681.8 170.0 L684.1 170.0 L686.3 170.0 L688.6 170.0 L690.8 170.0 L693.0 170.0 L695.3 170.0 L697.5 170.0 L699.8 170.0 L702.0 170.0 L704.3 170.0 L706.5 170.0 L708.8 170.0 L711.0 170.0 L713.3 170.0 L715.5 169.1 L717.8 169.1 L720.0 167.7 L722.3 168.6 L724.5 168.6 L726.8 168.0 L729.0 167.1 L731.3 159.3 L733.5 159.1 L735.8 159.1 L738.0 165.4 L740.3 166.2 L742.5 166.8 L744.8 167.5 L747.0 167.5 L749.3 167.5 L751.5 166.3 L753.8 161.1 L756.0 161.4 L758.3 163.4 L760.5 170.0 L762.8 170.0 L765.0 170.0 L767.3 169.7 L769.5 169.7 L771.8 164.0 L774.0 160.5 L776.3 160.2 L778.5 165.7 L780.8 168.9 L783.0 164.8 L785.3 164.9 L787.5 165.6 L789.8 170.0 L792.0 170.0 L794.3 170.0 L796.5 170.0 L798.8 170.0 L801.0 170.0 L803.3 170.0 L805.5 170.0 L807.8 170.0 L810.0 170.0 L812.3 168.5 L814.5 161.4 L816.8 125.4 L819.0 127.0 L821.3 133.2 L823.5 166.6 L825.8 159.7 L828.0 159.9 L830.3 162.0 L832.5 168.9 L834.8 169.5 L837.0 170.0 L839.3 170.0 L841.5 170.0 L843.8 170.0 L846.0 170.0 L848.3 170.0 L850.5 170.0 L852.8 170.0 L855.0 170.0" fill="none" stroke="#FF2E3F" stroke-width="2"
        stroke-linejoin="round" stroke-linecap="round"/>
  <circle cx="819.0" cy="127.0" r="3.5"
          fill="#FFFFFF" stroke="#FF2E3F" stroke-width="2"/>
  <text x="63.2" y="190" font-family="'JetBrains Mono','Cascadia Code',Consolas,ui-monospace,monospace" font-size="10"
            fill="#9A9A9A" text-anchor="middle">oct</text><text x="133.0" y="190" font-family="'JetBrains Mono','Cascadia Code',Consolas,ui-monospace,monospace" font-size="10"
            fill="#9A9A9A" text-anchor="middle">nov</text><text x="200.4" y="190" font-family="'JetBrains Mono','Cascadia Code',Consolas,ui-monospace,monospace" font-size="10"
            fill="#9A9A9A" text-anchor="middle">dec</text><text x="270.2" y="190" font-family="'JetBrains Mono','Cascadia Code',Consolas,ui-monospace,monospace" font-size="10"
            fill="#9A9A9A" text-anchor="middle">jan</text><text x="339.9" y="190" font-family="'JetBrains Mono','Cascadia Code',Consolas,ui-monospace,monospace" font-size="10"
            fill="#9A9A9A" text-anchor="middle">feb</text><text x="402.9" y="190" font-family="'JetBrains Mono','Cascadia Code',Consolas,ui-monospace,monospace" font-size="10"
            fill="#9A9A9A" text-anchor="middle">mar</text><text x="472.6" y="190" font-family="'JetBrains Mono','Cascadia Code',Consolas,ui-monospace,monospace" font-size="10"
            fill="#9A9A9A" text-anchor="middle">apr</text><text x="540.1" y="190" font-family="'JetBrains Mono','Cascadia Code',Consolas,ui-monospace,monospace" font-size="10"
            fill="#9A9A9A" text-anchor="middle">may</text><text x="609.8" y="190" font-family="'JetBrains Mono','Cascadia Code',Consolas,ui-monospace,monospace" font-size="10"
            fill="#9A9A9A" text-anchor="middle">jun</text><text x="677.3" y="190" font-family="'JetBrains Mono','Cascadia Code',Consolas,ui-monospace,monospace" font-size="10"
            fill="#9A9A9A" text-anchor="middle">jul</text><text x="747.0" y="190" font-family="'JetBrains Mono','Cascadia Code',Consolas,ui-monospace,monospace" font-size="10"
            fill="#9A9A9A" text-anchor="middle">aug</text><text x="816.8" y="190" font-family="'JetBrains Mono','Cascadia Code',Consolas,ui-monospace,monospace" font-size="10"
            fill="#9A9A9A" text-anchor="middle">sep</text>
</svg>